HIERARCHY
ROOT hip
{
	OFFSET 0.000000 0.000000 0.000000 
	CHANNELS 6 Xposition Yposition Zposition Xrotation Zrotation Yrotation
	JOINT abdomen
	{
		OFFSET 0.000000 3.402643 0.000000 
		CHANNELS 3 Xrotation Zrotation Yrotation
		JOINT chest
		{
			OFFSET 0.000000 8.438565 -0.680529 
			CHANNELS 3 Xrotation Zrotation Yrotation
			JOINT neck
			{
				OFFSET 0.000000 10.207942 -0.272212 
				CHANNELS 3 Xrotation Zrotation Yrotation
				JOINT head
				{
					OFFSET 0.000000 3.130431 0.000000 
					CHANNELS 3 Xrotation Zrotation Yrotation
					End Site
					{
						OFFSET 0.000000 3.130435 0.000000 
					}
				}
			}
			JOINT lCollar
			{
				OFFSET 3.470700 6.669187 -0.816635 
				CHANNELS 3 Yrotation Zrotation Xrotation
				JOINT lShldr
				{
					OFFSET 3.198488 0.000000 0.000000 
					CHANNELS 3 Zrotation Yrotation Xrotation
					JOINT lForeArm
					{
						OFFSET 10.139888 0.000000 0.000000 
						CHANNELS 3 Yrotation Zrotation Xrotation
						JOINT lHand
						{
							OFFSET 8.370511 0.000000 0.000000 
							CHANNELS 3 Zrotation Yrotation Xrotation
							End Site
							{
								OFFSET 4.083176 0.000000 0.000000 
							}
						}
					}
				}
			}
			JOINT rCollar
			{
				OFFSET -3.470700 6.669187 -0.816635 
				CHANNELS 3 Yrotation Zrotation Xrotation
				JOINT rShldr
				{
					OFFSET -3.198488 0.000000 0.000000 
					CHANNELS 3 Zrotation Yrotation Xrotation
					JOINT rForeArm
					{
						OFFSET -10.139888 0.000000 0.000000 
						CHANNELS 3 Yrotation Zrotation Xrotation
						JOINT rHand
						{
							OFFSET -8.370511 0.000000 0.000000 
							CHANNELS 3 Zrotation Yrotation Xrotation
							End Site
							{
								OFFSET -4.083176 0.000000 0.000000 
							}
						}
					}
				}
			}
		}
	}
	JOINT lThigh
	{
		OFFSET 5.308129 -1.633274 1.361059 
		CHANNELS 3 Xrotation Zrotation Yrotation
		JOINT lShin
		{
			OFFSET -2.041588 -20.007561 0.000000 
			CHANNELS 3 Xrotation Zrotation Yrotation
			JOINT lFoot
			{
				OFFSET 0.000000 -19.190928 -1.224953 
				CHANNELS 3 Xrotation Yrotation Zrotation
				End Site
				{
					OFFSET 0.000000 -2.449906 4.627600 
				}
			}
		}
	}
	JOINT rThigh
	{
		OFFSET -5.308129 -1.633274 1.361059 
		CHANNELS 3 Xrotation Zrotation Yrotation
		JOINT rShin
		{
			OFFSET 2.041588 -20.007561 0.000000 
			CHANNELS 3 Xrotation Zrotation Yrotation
			JOINT rFoot
			{
				OFFSET 0.000000 -19.190928 -1.224953 
				CHANNELS 3 Xrotation Yrotation Zrotation
				End Site
				{
					OFFSET 0.000000 -2.449906 4.627600 
				}
			}
		}
	}
}
MOTION
Frames: 14
Frame Time: 0.033333
0.334508 48.128448 0.334508 82.949219 0.004795 -0.010061 20.999083 1.437146 -3.748139 -24.584009 4.734600 -0.008744 -23.529522 10.084587 -6.734464 10.524219 0.508720 -0.030344 -2.045649 25.782154 -14.208920 25.960688 -26.576525 -69.008026 -14.015388 -1.832937 2.394471 -53.585377 -10.465027 105.315414 -3.006779 -4.328051 -14.043324 57.209339 63.816158 -33.530613 80.511940 3.137279 1.224701 38.805038 50.520535 65.806732 -37.683914 45.611862 15.192337 47.741718 0.054646 -4.121507 25.778547 18.148741 -17.495041 -36.336304 -44.653301 -18.641556 39.161068 0.449406 3.721291 33.076805 -20.545658 25.528517 
0.334508 48.078476 0.334508 82.949219 0.004795 -0.010061 20.998980 1.428013 -3.751596 -24.583420 2.338087 -0.007349 -22.995747 3.974824 -5.215403 10.524219 0.508720 -0.030344 -3.924406 16.141775 -14.065240 4.747851 -32.166744 -64.109764 -14.015388 -1.832937 2.394471 -53.585377 -10.465027 105.315414 -4.039323 -10.546118 -14.078096 66.912376 61.128273 -32.999889 80.511940 3.137279 1.224701 38.805038 50.520535 65.806732 -42.985657 47.270702 14.126251 62.652962 1.039420 -4.532662 -2.815224 21.022972 -10.219810 -45.106995 -53.797195 -15.929598 56.222370 -0.632821 4.346207 10.157661 -15.306859 19.198467 
0.334508 48.028515 0.334508 82.949219 0.004795 -0.010061 20.999954 1.528280 -3.713051 -24.580078 0.039028 -0.002721 -22.743349 -1.909436 -3.835507 10.524219 0.508720 -0.030344 -5.690893 6.764433 -14.364113 -16.318098 -26.164949 -58.022865 -14.015388 -1.832937 2.394471 -53.585377 -10.465027 105.315414 -5.114347 -16.503378 -14.333128 76.842827 57.984165 -31.995625 80.511940 3.137279 1.224701 38.805038 50.520535 65.806732 -47.202904 48.411076 14.390138 76.001976 1.994381 -4.665052 -31.023176 20.799900 -2.810053 -54.861435 -62.300732 -12.699085 72.006439 -1.737486 4.624748 -12.129453 -8.457325 14.962321 
0.334508 47.984100 0.334508 82.949219 0.004795 -0.010061 21.001196 1.646778 -3.667499 -24.582127 -1.831394 0.001225 -22.684608 -6.698156 -2.735964 10.524219 0.508720 -0.030344 -7.501744 -2.196525 -14.960346 -32.228199 -0.972533 -67.843788 0.982689 -1.409516 2.393985 -53.585377 -10.465027 105.315414 -6.064970 -21.335056 -14.684594 85.659256 54.616772 -30.666740 80.511940 3.137279 1.224701 38.805038 50.520535 65.806732 -45.720798 47.466015 19.452641 79.227325 2.217933 -4.687208 -44.649273 17.933775 0.340551 -54.462154 -66.838379 -19.015921 77.531639 -2.137945 4.641128 -24.304054 -2.711886 14.194042 
0.334508 47.939667 0.334508 82.949219 0.004795 -0.010061 21.002529 1.765274 -3.621951 -24.577944 -3.536241 -0.007137 -22.715769 -11.086425 -1.736293 10.524219 0.508720 -0.030344 -9.334283 -10.491482 -15.816273 -53.561771 23.284704 -92.758141 17.003077 -0.973704 2.284911 -53.585377 -10.465027 105.315414 -7.014698 -25.749416 -15.100030 93.909668 51.112682 -29.386608 80.511940 3.137279 1.224701 38.805038 50.520535 65.806732 -32.929867 40.283691 36.351242 57.011513 0.653394 -4.396776 -23.996233 12.740463 -4.889213 -29.304520 -59.633591 -52.510738 57.868927 -0.751142 4.389779 -13.723302 -0.017658 17.647863 
0.334508 47.906353 0.334508 82.949219 0.004795 -0.010061 21.004072 1.892884 -3.572901 -24.575775 -4.997566 -0.003046 -22.827457 -14.863894 -0.871875 10.524219 0.508720 -0.030344 -10.473875 -15.436274 -16.540646 -68.058746 29.354723 -104.339691 11.951626 -1.106190 2.336412 -53.585377 -10.465027 105.315414 -7.915494 -29.537378 -15.564713 101.208748 47.614670 -28.231134 80.511940 3.137279 1.224701 38.805038 50.520535 65.806732 -19.514690 24.561636 52.891582 17.437754 -1.441388 -2.566247 20.624283 4.110501 -11.557790 -15.789742 -36.929382 -74.706085 20.703777 1.312561 2.732907 13.717561 2.856659 23.505949 
0.334508 47.878590 0.334508 82.949219 0.004795 -0.010061 21.005606 2.011378 -3.527358 -24.578966 -5.494399 0.002203 -22.809795 -16.123816 -0.593109 10.524219 0.508720 -0.030344 -10.576908 -16.076862 -16.606329 -75.429535 30.856256 -99.853111 -8.274825 -1.668464 2.406539 -53.585377 -10.465027 105.315414 -8.205998 -30.000000 -15.665464 105.045341 44.393536 -26.899664 80.511940 3.137279 1.224701 38.805038 50.520535 65.806732 -13.146156 11.985379 55.195099 -5.377193 -1.936533 -0.989022 47.366005 -1.174062 -11.933468 -12.993533 -19.302700 -76.580093 -1.676741 1.884201 1.242646 31.522856 6.060667 24.204529 
0.334508 47.917465 0.334508 82.949219 0.004795 -0.010061 21.007101 2.120756 -3.484960 -24.583561 -4.656546 0.003321 -22.828825 -13.986139 -1.081049 10.524219 0.508720 -0.030344 -9.760164 -12.642853 -16.192726 -84.664314 32.759602 -89.933014 -35.393383 -2.385893 2.204299 -53.585377 -10.465027 105.315414 -7.723691 -28.650862 -15.485476 104.215973 41.358696 -25.182575 80.511940 3.137279 1.224701 38.805038 50.520535 65.806732 -9.316401 6.137607 48.047829 -8.622508 -1.974004 -0.767748 51.843285 -1.616489 -10.155615 -10.285215 -10.885779 -68.100945 -6.213292 1.923675 0.914524 36.430359 7.149560 19.603075 
0.334508 47.950787 0.334508 82.949219 0.004795 -0.010061 21.008272 2.202787 -3.453416 -24.578243 -3.604433 -0.002384 -22.888645 -11.292144 -1.691043 10.524219 0.508720 -0.030344 -8.813232 -8.434823 -15.777864 -91.194221 34.491734 -77.508812 -62.790283 -2.938776 1.681581 -53.585377 -10.465027 105.315414 -7.143406 -25.935001 -15.308298 102.204109 38.742310 -23.712427 80.511940 3.137279 1.224701 38.805038 50.520535 65.806732 -5.458047 2.867101 38.019966 -6.293443 -1.963283 -0.917067 50.614723 -0.460616 -8.236788 -6.467593 -5.675193 -56.196247 -5.793254 1.924919 0.947272 38.875309 6.555484 13.831253 
0.334508 47.984100 0.334508 82.949219 0.004795 -0.010061 21.008272 2.202787 -3.453416 -24.584560 -2.708152 -0.005814 -22.974117 -8.996959 -2.210761 10.524219 0.508720 -0.030344 -7.971579 -4.570698 -15.496350 -94.103889 35.303093 -63.913399 -88.147736 -3.182835 1.024873 -53.585377 -10.465027 105.315414 -6.673619 -23.617102 -15.196085 100.265610 36.722317 -22.641159 80.511940 3.137279 1.224701 38.805038 50.520535 65.806732 -1.522021 1.147297 27.027323 -1.761292 -1.913452 -1.236954 47.443058 1.294510 -6.568821 -1.944054 -2.722305 -42.990486 -3.444448 1.914042 1.125575 41.019127 5.051009 8.410931 
0.334508 48.022957 0.334508 82.949219 0.004795 -0.010061 21.008272 2.202787 -3.453416 -24.581753 -1.656043 -0.001277 -23.088820 -6.278156 -2.825256 10.524219 0.508720 -0.030344 -7.072785 -0.286553 -15.233541 -95.388733 34.342392 -50.266003 -110.677032 -3.143955 0.395820 -53.585377 -10.465027 105.315414 -6.125757 -20.871725 -15.077478 97.374580 35.415184 -21.734482 80.511940 3.137279 1.224701 38.805038 50.520535 65.806732 2.576774 0.644263 14.975511 3.506827 -1.831732 -1.630797 43.532017 3.384604 -5.150553 3.211515 -1.464028 -28.445383 -0.030565 1.861209 1.351812 43.638241 3.238705 3.765910 
0.334508 48.056274 0.334508 82.949219 0.004795 -0.010061 21.008272 2.202787 -3.453416 -24.580301 -0.603930 -0.006546 -23.243732 -3.600928 -3.441494 10.524219 0.508720 -0.030344 -6.213921 3.927377 -15.059100 -95.146179 30.980495 -37.690628 -129.238739 -2.935798 -0.080174 -53.585377 -10.465027 105.315414 -5.612504 -18.161665 -15.002501 94.125748 34.935379 -21.059298 80.511940 3.137279 1.224701 38.805038 50.520535 65.806732 6.454242 0.771579 4.235942 8.790051 -1.727806 -1.977575 40.797607 4.958604 -4.254364 8.092052 -1.220382 -15.441555 2.651483 1.829605 1.555359 46.926369 1.911475 0.734920 
0.334508 48.084030 0.334508 82.949219 0.004795 -0.010061 21.008272 2.202787 -3.453416 -24.580133 0.302056 -0.001600 -23.389505 -1.272431 -3.971471 10.524219 0.508720 -0.030344 -5.444603 7.663118 -14.948840 -93.428940 24.730150 -28.424423 -140.570297 -2.737033 -0.316563 -53.585377 -10.465027 105.315414 -5.161008 -15.808299 -14.948112 90.973671 35.335258 -20.671600 80.511940 3.137279 1.224701 38.805038 50.520535 65.806732 6.454242 0.771579 4.235942 8.790051 -1.727805 -1.977575 40.797604 4.958604 -4.254364 8.092052 -1.220382 -15.441555 2.651483 1.829605 1.555359 46.926373 1.911476 0.734920 
0.334508 48.100689 0.334508 82.949219 0.004795 -0.010061 21.008272 2.202787 -3.453416 -24.580681 0.993723 -0.001182 -23.521557 0.477957 -4.381215 10.524219 0.508720 -0.030344 -4.811464 10.716034 -14.907624 -88.954239 13.129792 -24.204620 -140.669312 -2.734244 -0.328414 -53.585377 -10.465027 105.315414 -4.834961 -14.034406 -14.928746 88.223770 36.479675 -20.576208 80.511940 3.137279 1.224701 38.805038 50.520535 65.806732 6.454242 0.771578 4.235942 8.790051 -1.727806 -1.977575 40.797607 4.958604 -4.254364 8.092052 -1.220382 -15.441555 2.651483 1.829605 1.555359 46.926373 1.911476 0.734920 
